<?xml version="1.0" standalone="no"?>
<!DOCTYPE svg PUBLIC "-//W3C//DTD SVG 20010904//EN"
 "http://www.w3.org/TR/2001/REC-SVG-20010904/DTD/svg10.dtd">
<svg version="1.0" xmlns="http://www.w3.org/2000/svg"
 width="128.000000pt" height="128.000000pt" viewBox="0 0 128.000000 128.000000"
 preserveAspectRatio="xMidYMid meet">
<metadata>
Created by potrace 1.14, written by Peter Selinger 2001-2017
</metadata>
<g transform="translate(0.000000,128.000000) scale(0.100000,-0.100000)"
fill="#000000" stroke="none">
<path d="M6 1271 c-7 -13 -3 -110 4 -106 5 3 12 0 16 -6 4 -7 3 -9 -4 -5 -6 3
-13 2 -17 -4 -3 -5 2 -10 12 -10 17 -1 17 -1 1 -11 -21 -12 -24 -45 -5 -52 9
-4 9 -6 0 -6 -7 -1 -13 -8 -13 -16 0 -8 6 -12 14 -9 8 3 17 1 20 -4 3 -5 -2
-9 -12 -8 -12 1 -17 -7 -18 -26 -1 -21 4 -28 18 -28 17 0 18 -5 13 -42 -6 -42
-6 -42 10 -20 9 12 13 27 9 34 -4 7 -3 8 4 4 7 -4 12 -19 12 -33 0 -15 -3 -23
-7 -20 -3 4 -12 2 -20 -5 -11 -9 -15 -7 -20 10 -7 30 -23 28 -23 -4 0 -17 4
-23 12 -18 10 6 9 3 0 -8 -10 -13 -11 -22 -2 -37 7 -14 7 -21 1 -21 -7 0 -10
-40 -9 -107 2 -83 6 -111 18 -121 13 -12 13 -13 -3 -8 -15 5 -16 3 -6 -15 7
-14 7 -19 0 -15 -15 10 -9 -66 7 -82 6 -7 12 -18 12 -25 0 -6 -6 -3 -13 7 -10
14 -13 -1 -15 -95 -2 -105 -1 -111 15 -98 15 12 15 10 -1 -8 -16 -20 -17 -25
-5 -40 9 -11 10 -14 2 -9 -9 5 -13 0 -13 -14 0 -14 4 -19 12 -14 11 6 11 4 0
-7 -15 -17 -16 -43 0 -33 7 5 8 3 2 -7 -15 -25 -15 -49 1 -43 8 4 15 1 15 -5
0 -6 -7 -11 -16 -11 -11 0 -14 -8 -12 -32 3 -30 6 -33 42 -36 29 -3 36 0 30
10 -6 11 -5 11 8 0 13 -10 17 -10 21 0 4 10 8 10 14 1 10 -13 213 -13 213 1 0
5 6 3 14 -3 8 -6 32 -10 54 -9 35 3 41 7 46 31 4 19 12 27 26 27 12 0 18 -4
15 -10 -3 -5 -12 -10 -20 -10 -8 0 -13 -8 -12 -19 1 -16 10 -18 79 -18 43 0
78 4 78 8 0 9 -15 13 -39 10 -11 -2 -11 0 0 13 12 14 17 13 36 -10 17 -19 31
-24 58 -22 27 2 34 6 30 18 -4 11 -2 11 9 -3 14 -18 42 -24 31 -7 -3 6 1 10 9
10 17 0 22 16 6 22 -6 2 -6 8 0 18 8 13 10 12 10 -2 0 -10 5 -18 11 -18 8 0 7
-5 -1 -15 -7 -9 -10 -19 -6 -22 4 -4 11 -1 16 7 7 11 10 12 10 2 0 -14 47 -11
71 4 7 4 10 3 6 -3 -8 -13 76 -11 85 2 5 6 8 5 8 -2 0 -7 7 -13 15 -13 20 0
19 17 -2 29 -11 6 -13 11 -5 11 7 0 10 4 7 10 -3 6 1 7 9 4 9 -3 16 -16 16
-29 0 -23 1 -23 130 -22 109 1 130 4 131 17 0 10 3 9 9 -5 8 -18 9 -17 9 7 1
29 -14 46 -23 26 -3 -7 -3 3 0 22 3 29 2 32 -8 19 -7 -9 -19 -14 -26 -11 -10
3 -7 8 7 19 24 16 45 8 37 -13 -3 -8 -1 -14 4 -14 13 0 13 57 0 65 -5 3 -10
12 -10 18 0 7 4 6 11 -3 7 -11 9 -2 8 35 -1 28 -7 56 -13 64 -8 11 -8 13 1 7
10 -5 13 20 12 113 -1 82 -5 121 -13 121 -7 0 -7 3 1 8 15 9 15 292 1 292 -5
0 -6 -4 -3 -10 3 -6 2 -10 -3 -10 -19 0 -20 13 -1 33 25 28 27 102 2 113 -10
4 -21 6 -25 6 -5 -1 -8 3 -8 8 0 13 13 13 27 -1 8 -8 13 -7 18 1 10 15 -13 30
-34 22 -14 -5 -14 -4 -1 10 8 9 17 12 18 7 2 -5 8 -9 13 -9 12 0 7 32 -6 42
-6 5 -6 8 2 8 16 0 14 80 -2 97 -11 10 -14 10 -18 0 -3 -6 -6 -7 -6 -1 -1 5 7
19 17 30 21 23 27 54 11 54 -7 0 -8 5 -3 13 5 6 9 26 9 42 0 29 -2 30 -43 30
-23 0 -43 -5 -43 -10 -1 -6 -10 -16 -20 -23 -11 -7 -16 -19 -12 -29 4 -11 2
-14 -8 -11 -8 3 -13 11 -11 17 1 7 -2 10 -7 7 -5 -4 -13 -2 -16 4 -4 6 -3 10
2 9 20 -3 32 2 29 14 -1 6 -1 9 1 5 8 -14 23 -9 23 7 0 20 -19 19 -42 -2 -15
-13 -18 -14 -13 -2 5 13 -16 15 -140 16 -80 0 -148 -4 -151 -9 -3 -5 -12 -4
-20 3 -8 6 -17 9 -21 5 -3 -3 0 -6 8 -6 10 0 11 -2 2 -8 -8 -5 -3 -11 13 -19
13 -6 24 -7 24 -2 0 5 5 9 10 9 6 0 5 -8 -2 -20 -11 -18 -14 -18 -24 -5 -10
13 -13 13 -24 1 -6 -9 -8 -21 -4 -28 5 -10 4 -10 -6 -1 -10 9 -10 16 -2 25 8
10 6 19 -6 36 -26 34 -84 20 -77 -18 3 -13 -1 -17 -11 -13 -13 5 -13 8 0 28
l15 23 -110 -1 c-71 0 -109 -4 -109 -11 0 -6 -5 -4 -10 4 -8 13 -10 12 -10 -3
0 -10 -5 -15 -10 -12 -6 4 -8 10 -5 15 3 5 -29 8 -70 8 -62 -1 -75 -3 -71 -15
3 -8 2 -11 -3 -8 -5 3 -13 0 -16 -5 -5 -7 -12 -5 -20 7 -10 14 -28 18 -74 19
-33 1 -58 -3 -55 -7 3 -5 10 -6 16 -3 7 5 8 2 4 -5 -6 -9 -13 -8 -27 5 -15 13
-22 15 -31 6 -7 -7 -17 -12 -23 -12 -5 0 -3 5 5 10 11 8 3 10 -28 8 -24 -1
-45 -4 -46 -7z m52 -26 c-3 -3 -9 2 -12 12 -6 14 -5 15 5 6 7 -7 10 -15 7 -18z
m176 -1 c3 -8 1 -14 -4 -14 -6 0 -10 5 -10 11 0 5 -4 7 -10 4 -5 -3 -10 1 -10
9 0 18 26 11 34 -10z m121 16 c-3 -5 -12 -10 -18 -10 -7 0 -6 4 3 10 19 12 23
12 15 0z m210 -11 c3 6 12 11 18 11 19 -1 -26 -25 -48 -26 -42 -3 -44 -4 -38
-21 6 -17 6 -17 -10 -1 -18 18 -22 29 -9 27 20 -3 32 3 32 16 0 14 3 14 24 0
16 -11 26 -13 31 -6z m68 -12 c-4 -6 -9 -3 -13 8 -6 16 -9 14 -18 -14 -10 -29
-10 -32 3 -21 13 11 14 10 9 -4 -9 -22 -31 -20 -37 4 -3 11 -2 18 2 15 5 -2
13 7 20 21 9 21 14 24 26 14 8 -7 12 -17 8 -23z m273 8 c-1 -14 -6 -28 -9 -32
-4 -3 -1 -13 6 -21 9 -13 9 -14 0 -8 -8 4 -13 2 -13 -4 0 -6 -5 -8 -11 -4 -8
4 -7 9 2 15 8 5 10 9 5 9 -5 0 -3 7 4 15 10 13 9 15 -10 15 -13 0 -20 5 -17
13 2 6 12 11 21 11 9 -1 16 2 16 7 0 5 2 9 4 9 3 0 3 -11 2 -25z m39 15 c3 -6
-1 -7 -9 -4 -18 7 -21 14 -7 14 6 0 13 -4 16 -10z m272 -12 c-3 -8 -6 -5 -6 6
-1 11 2 17 5 13 3 -3 4 -12 1 -19z m-1192 3 c3 -5 2 -12 -3 -15 -5 -3 -9 1 -9
9 0 17 3 19 12 6z m150 -11 c3 -5 1 -10 -4 -10 -6 0 -11 5 -11 10 0 6 2 10 4
10 3 0 8 -4 11 -10z m829 3 c-5 -5 -12 -12 -15 -16 -3 -5 -9 -2 -12 7 -5 12 0
16 15 16 12 0 17 -3 12 -7z m-660 -18 c-7 -16 -24 -21 -24 -6 0 8 7 13 27 20
1 1 0 -6 -3 -14z m426 11 c0 -3 -4 -8 -10 -11 -5 -3 -10 -1 -10 4 0 6 5 11 10
11 6 0 10 -2 10 -4z m-726 -21 c-4 -10 0 -15 12 -16 17 -1 17 -2 2 -6 -10 -2
-18 -8 -18 -13 0 -4 8 -7 18 -5 9 1 11 0 4 -2 -7 -3 -10 -9 -7 -14 4 -5 1 -9
-4 -9 -6 0 -12 3 -12 8 -7 48 -7 72 1 72 5 0 7 -7 4 -15z m100 6 c3 -5 -1 -11
-9 -15 -9 -3 -15 0 -15 9 0 16 16 20 24 6z m133 -11 c2 -21 -21 -28 -32 -10
-3 6 1 7 10 4 9 -4 15 -3 14 2 -2 11 0 24 4 24 1 0 3 -9 4 -20z m150 -20 c-1
-13 -5 -16 -11 -10 -6 6 -14 6 -23 -1 -9 -8 -13 -8 -13 0 0 10 13 15 33 12 13
-2 8 11 -10 26 -16 13 -16 13 4 4 13 -7 21 -19 20 -31z m228 11 c0 -16 -2 -27
-4 -25 -3 2 -15 -6 -28 -18 -13 -12 -23 -16 -23 -10 0 7 5 12 10 12 6 0 10 7
10 16 0 8 5 12 10 9 6 -4 10 5 10 19 0 14 3 26 8 26 4 0 7 -13 7 -29z m292 22
c-9 -2 -14 -9 -11 -15 4 -7 2 -8 -5 -4 -15 10 -4 26 17 25 15 -1 15 -2 -1 -6z
m153 -2 c0 -5 -6 -11 -13 -14 -8 -3 -14 1 -14 9 0 8 6 14 14 14 7 0 13 -4 13
-9z m-894 -13 c5 4 3 0 -4 -9 -6 -9 -8 -20 -4 -24 4 -5 1 -5 -5 -1 -7 4 -13 3
-13 -1 0 -5 6 -15 13 -22 10 -10 8 -11 -6 -5 -14 5 -17 13 -13 30 6 24 -7 33
-19 14 -3 -5 -10 -10 -16 -10 -5 0 -1 8 9 18 11 13 22 16 33 11 9 -5 20 -5 25
-1z m264 -8 c0 -4 10 -11 22 -17 l23 -10 -23 -12 c-19 -10 -22 -9 -22 8 0 26
-17 36 -23 14 -3 -10 -4 -6 -4 8 1 18 6 25 14 22 7 -3 13 -8 13 -13z m55 10
c3 -5 1 -10 -4 -10 -6 0 -11 5 -11 10 0 6 2 10 4 10 3 0 8 -4 11 -10z m671 -5
c-1 -8 -6 -18 -11 -22 -4 -4 -5 -2 -1 5 4 7 2 12 -6 12 -9 0 -9 3 2 10 19 12
19 13 16 -5z m-499 -9 c-16 -13 -16 -14 4 -19 21 -6 21 -7 -11 -44 -19 -21
-36 -36 -38 -35 -3 2 -8 -2 -13 -10 -6 -9 -8 -6 -6 9 0 12 5 19 10 16 15 -9
38 20 37 46 -3 44 -1 51 18 51 16 -1 16 -1 -1 -14z m290 -8 c-3 -8 -6 -5 -6 6
-1 11 2 17 5 13 3 -3 4 -12 1 -19z m255 15 c-6 -3 -10 -8 -7 -13 3 -4 -1 -12
-8 -18 -10 -8 -13 -5 -15 11 -1 17 4 23 21 24 12 0 16 -1 9 -4z m-892 -25 c0
-6 -6 -5 -15 2 -8 7 -15 14 -15 16 0 2 7 1 15 -2 8 -4 15 -11 15 -16z m486 -3
c-3 -8 -2 -16 2 -18 4 -2 1 -2 -6 0 -9 2 -11 -3 -7 -18 5 -14 3 -19 -3 -15 -6
3 -13 2 -17 -3 -3 -6 3 -15 14 -20 27 -15 34 -14 28 4 -4 8 -1 17 5 21 7 4 8
3 4 -4 -4 -7 -3 -12 2 -12 6 0 13 7 16 16 6 15 8 15 25 0 18 -17 19 -17 24 1
4 14 5 15 6 2 0 -9 -7 -23 -16 -30 -10 -8 -14 -9 -10 -2 13 22 -12 24 -33 3
-15 -15 -27 -19 -43 -14 -21 8 -29 10 -43 13 -4 0 -1 8 7 17 10 13 10 17 0 24
-9 5 -10 10 -2 14 6 4 11 1 11 -6 0 -10 3 -9 9 2 6 8 7 18 4 24 -4 5 -1 6 7 1
10 -6 12 -4 7 9 -4 11 -3 15 4 11 6 -4 8 -13 5 -20z m-271 -12 c-11 -7 -24
-13 -29 -13 -6 1 -1 6 12 13 12 7 19 17 15 22 -4 4 -2 5 6 0 12 -7 11 -10 -4
-22z m505 13 c-7 -7 -13 -7 -20 0 -6 6 -3 10 10 10 13 0 16 -4 10 -10z m-925
-16 c18 -3 14 -5 -14 -6 -17 -1 -28 4 -28 12 0 9 5 10 16 4 9 -4 21 -9 26 -10z
m623 -4 c-2 -20 -5 -23 -20 -15 -13 7 -18 6 -18 -2 0 -7 -3 -10 -6 -6 -3 3 -1
14 5 24 6 10 11 12 11 6 0 -7 5 -13 10 -13 6 0 9 3 9 8 -2 12 1 22 6 22 3 0 4
-11 3 -24z m-509 -3 c-7 -10 -14 -20 -16 -22 -1 -2 -1 6 0 18 1 11 8 21 15 21
12 0 12 -3 1 -17z m802 -16 l11 -22 -21 22 c-22 23 -28 39 -11 28 5 -3 15 -16
21 -28z m120 10 c-10 -9 -11 -8 -5 6 3 10 9 15 12 12 3 -3 0 -11 -7 -18z
m-851 1 c0 -4 -4 -8 -9 -8 -6 0 -12 4 -15 8 -3 5 1 9 9 9 8 0 15 -4 15 -9z
m244 -12 c-10 -8 -21 -12 -23 -10 -3 2 4 11 15 18 10 8 21 12 23 10 3 -2 -4
-11 -15 -18z m410 16 c2 -4 -4 -8 -14 -8 -10 0 -16 4 -14 8 3 4 9 8 14 8 5 0
11 -4 14 -8z m-874 -33 c0 -10 -4 -19 -10 -19 -5 0 -7 7 -4 15 4 10 0 15 -11
15 -9 0 -14 4 -10 10 9 15 35 0 35 -21z m120 21 c0 -5 -2 -10 -4 -10 -3 0 -8
5 -11 10 -3 6 -1 10 4 10 6 0 11 -4 11 -10z m137 -5 c0 -8 -4 -12 -8 -9 -4 2
-12 -3 -17 -12 -8 -15 -10 -15 -15 0 -4 10 -3 15 3 11 6 -3 13 1 16 9 8 20 21
21 21 1z m756 8 c-7 -2 -13 -11 -13 -19 0 -8 -4 -14 -9 -14 -5 0 -7 9 -4 20 3
11 13 20 22 19 10 0 11 -2 4 -6z m-960 -27 c-10 -13 -20 -22 -22 -20 -4 4 29
44 36 44 2 0 -4 -11 -14 -24z m288 7 c13 -17 13 -17 -5 -3 -18 14 -18 13 -13
-10 4 -14 4 -19 1 -12 -3 6 -10 12 -15 12 -6 0 -8 -4 -4 -9 3 -5 1 -12 -4 -16
-6 -3 -9 7 -8 25 2 34 26 41 48 13z m69 7 c0 -5 -5 -10 -11 -10 -5 0 -7 5 -4
10 3 6 8 10 11 10 2 0 4 -4 4 -10z m700 0 c12 -8 9 -9 -12 -8 -15 1 -24 6 -22
10 7 10 16 10 34 -2z m-480 -16 c0 -2 -9 -4 -20 -4 -11 0 -20 4 -20 9 0 5 9 7
20 4 11 -3 20 -7 20 -9z m245 6 c4 -6 11 -7 17 -4 7 4 8 2 4 -4 -5 -9 -13 -9
-29 -1 -31 16 -33 19 -14 19 9 0 19 -5 22 -10z m-805 -15 c-7 -9 -10 -19 -6
-22 4 -4 11 -1 16 7 5 8 12 11 15 8 10 -10 -2 -25 -25 -31 -23 -6 -28 21 -8
41 17 17 23 15 8 -3z m56 0 c4 -8 10 -15 16 -15 5 0 6 5 3 10 -8 13 15 13 35
0 12 -7 12 -12 3 -21 -10 -10 -10 -16 2 -29 13 -14 13 -17 0 -17 -8 0 -12 4
-9 8 2 4 0 10 -5 14 -5 3 -8 14 -6 25 2 12 0 18 -6 15 -5 -4 -9 -14 -9 -23 0
-12 -4 -10 -17 8 -9 14 -22 28 -27 32 -7 5 -7 8 2 8 7 0 15 -7 18 -15z m151
-1 c-3 -3 -12 -4 -19 -1 -8 3 -5 6 6 6 11 1 17 -2 13 -5z m146 -24 c-3 -11 -7
-20 -9 -20 -2 0 -4 9 -4 20 0 11 4 20 9 20 5 0 7 -9 4 -20z m37 16 c0 -3 -4
-8 -10 -11 -5 -3 -10 -1 -10 4 0 6 5 11 10 11 6 0 10 -2 10 -4z m44 -4 c3 -5
-1 -9 -9 -9 -8 0 -12 4 -9 9 3 4 7 8 9 8 2 0 6 -4 9 -8z m452 -15 c8 3 14 0
14 -5 0 -6 -9 -9 -20 -7 -11 2 -24 -4 -30 -13 -9 -15 -10 -15 -8 3 1 11 -2 26
-6 34 -7 11 -4 11 13 -2 13 -8 30 -13 37 -10z m89 -16 c-3 -12 -13 -21 -21
-21 -13 0 -12 3 2 18 17 16 17 17 -1 21 -14 2 -15 5 -4 12 19 11 32 -5 24 -30z
m-435 19 c-10 -6 -11 -10 -2 -10 6 0 12 -7 12 -16 0 -11 5 -14 18 -9 14 5 15
4 4 -7 -11 -11 -16 -10 -26 5 -9 11 -20 15 -32 10 -17 -6 -17 -5 -5 10 21 26
-11 23 -34 -3 -22 -24 -35 -26 -35 -4 0 8 4 13 9 10 4 -3 17 1 27 9 10 8 33
14 49 15 23 0 26 -3 15 -10z m263 -15 c-3 -8 1 -15 8 -15 7 0 10 -2 7 -5 -3
-3 -13 -3 -22 1 -12 4 -14 10 -6 19 5 6 6 16 2 20 -4 5 -2 5 5 1 7 -4 10 -13
6 -21z m-893 1 c-7 -7 -13 -7 -20 0 -6 6 -3 10 10 10 13 0 16 -4 10 -10z m310
-6 c8 -15 8 -18 -3 -14 -8 3 -14 11 -14 19 0 20 4 19 17 -5z m37 6 c0 -8 -6
-12 -15 -9 -11 5 -11 7 0 14 7 5 13 9 14 9 0 0 1 -6 1 -14z m69 -10 c-1 -18
-4 -22 -13 -14 -10 8 -10 13 0 23 7 8 13 14 13 15 1 0 1 -11 0 -24z m428 12
c-3 -4 -12 -8 -20 -8 -8 0 -13 4 -10 8 3 5 12 9 20 9 8 0 13 -4 10 -9z m259
-1 c7 3 3 -3 -7 -15 -23 -26 -31 -22 -20 10 4 13 9 17 11 10 3 -6 10 -9 16 -5z
m-633 -7 c0 -5 -5 -10 -11 -10 -5 0 -7 5 -4 10 3 6 8 10 11 10 2 0 4 -4 4 -10z
m236 -2 c4 -7 3 -8 -4 -4 -7 4 -12 1 -12 -9 0 -9 5 -13 10 -10 6 3 10 1 10 -5
0 -21 -25 -4 -28 18 -4 23 12 30 24 10z m445 -6 c-7 -2 -18 1 -23 6 -8 8 -4 9
13 5 13 -4 18 -8 10 -11z m-634 -12 c3 -10 2 -11 -4 -4 -4 6 -15 14 -23 17
-11 5 -9 6 4 4 11 -1 21 -9 23 -17z m248 10 c3 -5 1 -10 -4 -10 -6 0 -11 5
-11 10 0 6 2 10 4 10 3 0 8 -4 11 -10z m-679 -11 c3 -6 1 -15 -5 -20 -6 -5 -9
-6 -6 -3 3 4 0 13 -6 21 -8 9 -8 13 -1 13 6 0 14 -5 18 -11z m918 -5 c3 -8 2
-12 -4 -9 -6 3 -10 10 -10 16 0 14 7 11 14 -7z m-544 -1 c-8 -3 -18 -11 -22
-17 -5 -7 -8 -4 -8 7 0 11 7 17 23 16 15 0 17 -2 7 -6z m171 -10 c13 -16 12
-17 -3 -4 -10 7 -18 15 -18 17 0 8 8 3 21 -13z m259 -15 c0 -4 -7 -5 -15 -2
-8 4 -15 1 -15 -5 0 -6 -4 -11 -8 -11 -4 0 -8 9 -8 19 0 11 4 18 7 15 4 -2 11
1 15 7 6 11 23 -5 24 -23z m244 16 c3 -8 2 -12 -3 -9 -5 3 -12 1 -16 -5 -3 -5
-1 -10 6 -10 7 0 10 -3 6 -6 -14 -14 -26 8 -14 26 14 24 13 24 21 4z m-1077 0
c-8 -8 -48 -13 -43 -6 2 4 14 8 26 9 12 1 20 0 17 -3z m223 -4 c0 -5 -7 -10
-16 -10 -8 0 -13 -4 -10 -9 3 -4 -5 -8 -17 -7 -12 1 -26 -3 -30 -9 -5 -6 -7
-4 -4 5 2 8 10 14 16 13 6 -2 11 2 11 8 0 5 4 8 9 4 5 -3 12 -1 16 5 8 13 25
13 25 0z m34 -1 c-4 -8 0 -9 15 -4 23 7 26 -1 11 -25 -6 -9 -10 -10 -10 -3 0
6 -10 15 -21 18 -17 6 -19 9 -8 16 19 12 22 11 13 -2z m286 1 c11 -7 11 -10 2
-10 -9 0 -10 -5 -3 -19 9 -15 7 -20 -9 -24 -11 -3 -20 -1 -20 4 0 5 4 9 9 9
15 0 7 34 -9 42 -13 6 -13 7 0 7 8 0 22 -4 30 -9z m327 -20 c3 0 12 8 20 18
13 15 13 15 3 -6 -7 -14 -17 -21 -26 -18 -8 3 -14 0 -14 -6 0 -6 -2 -9 -5 -7
-2 3 -1 16 2 29 6 19 8 21 11 8 2 -10 6 -18 9 -18z m113 17 c0 -8 -7 -14 -15
-14 -11 0 -12 4 -4 14 6 7 13 13 15 13 2 0 4 -6 4 -13z m120 -7 c-6 -11 -13
-20 -16 -20 -2 0 0 9 6 20 6 11 13 20 16 20 2 0 0 -9 -6 -20z m-988 -30 c8
-21 7 -22 -9 -9 -47 37 -56 53 -21 40 12 -4 25 -18 30 -31z m295 28 c-2 -7 0
-22 5 -33 9 -19 8 -19 -6 -2 -8 11 -12 25 -9 33 6 17 16 19 10 2z m-497 -14
c0 -2 -7 -4 -15 -4 -8 0 -15 4 -15 10 0 5 7 7 15 4 8 -4 15 -8 15 -10z m773
-25 c-8 -8 -13 -7 -18 2 -6 8 -4 10 5 4 8 -5 11 -3 8 6 -3 8 -11 13 -17 11 -7
-1 -9 3 -6 9 5 8 12 6 23 -5 12 -11 13 -19 5 -27z m-726 14 c0 -8 -4 -10 -12
-3 -7 5 -16 6 -20 2 -5 -4 -5 -2 -2 4 9 15 34 13 34 -3z m288 7 c3 -6 -1 -7
-9 -4 -18 7 -21 14 -7 14 6 0 13 -4 16 -10z m192 3 c-4 -3 0 -15 10 -25 9 -10
14 -18 12 -19 -2 0 -12 -2 -22 -4 -14 -3 -16 0 -7 10 8 9 8 15 0 20 -10 6 -5
25 7 25 4 0 3 -3 0 -7z m481 -18 c-6 -14 -15 -25 -20 -25 -5 0 -1 11 8 25 9
14 18 25 20 25 2 0 -2 -11 -8 -25z m-155 3 c-6 -7 -12 -20 -15 -28 -3 -10 -6
-8 -10 8 -4 12 -2 20 2 17 5 -3 11 -1 15 5 3 5 9 10 12 10 3 0 1 -6 -4 -12z
m233 -10 c12 -13 13 -18 4 -12 -8 4 -23 7 -32 6 -18 -3 -24 9 -11 21 11 11 19
8 39 -15z m-993 -8 c3 -11 1 -18 -4 -14 -5 3 -9 12 -9 20 0 20 7 17 13 -6z
m202 9 c11 -17 -1 -21 -15 -4 -8 9 -8 15 -2 15 6 0 14 -5 17 -11z m165 7 c0
-2 -7 -7 -16 -10 -8 -3 -12 -2 -9 4 6 10 25 14 25 6z m-214 -18 c4 -7 3 -8 -4
-4 -7 4 -12 2 -12 -5 0 -7 -3 -10 -6 -6 -6 5 3 27 11 27 2 0 7 -5 11 -12z m96
-20 c-8 -8 -9 -4 -5 13 4 13 8 18 11 10 2 -7 -1 -18 -6 -23z m53 12 c10 -11
14 -20 9 -20 -5 0 -15 9 -22 20 -7 11 -11 20 -9 20 2 0 12 -9 22 -20z m556
-10 c6 0 8 4 4 9 -3 5 0 13 6 16 7 5 9 -3 5 -25 -4 -26 -1 -33 15 -37 10 -3
19 -9 19 -14 0 -15 -21 -21 -35 -9 -14 12 -20 6 -15 -15 1 -5 -2 -6 -7 -2 -4
5 -9 13 -9 18 -1 5 -2 14 -3 20 0 5 -5 7 -11 4 -5 -3 -10 -1 -10 5 0 7 6 10
13 7 8 -3 20 -1 28 4 11 7 11 9 -3 9 -10 0 -18 5 -18 11 0 5 -4 7 -10 4 -6 -4
-7 1 -3 11 5 15 7 15 15 0 5 -9 14 -16 19 -16z m-677 -10 c-6 -6 -10 -3 -10
10 0 13 4 16 10 10 7 -7 7 -13 0 -20z m216 10 c0 -11 -4 -20 -9 -20 -5 0 -7 9
-4 20 3 11 7 20 9 20 2 0 4 -9 4 -20z m-437 4 c-7 -3 -9 -12 -6 -20 3 -9 -1
-14 -11 -14 -14 0 -15 4 -6 20 6 11 16 20 23 19 9 0 9 -2 0 -5z m127 -4 c0 8
3 10 6 7 8 -7 -14 -37 -27 -37 -5 0 -5 7 -2 17 5 12 3 14 -7 8 -9 -5 -11 -4
-6 4 6 9 11 9 22 0 11 -9 14 -9 14 1z m640 -15 c14 -19 14 -19 -2 -6 -10 7
-18 18 -18 24 0 6 1 8 3 6 1 -2 9 -13 17 -24z m-687 -19 c-3 -4 -9 -2 -14 5
-13 22 -11 31 5 17 8 -7 12 -17 9 -22z m764 20 c4 -4 -1 -14 -12 -22 -20 -15
-19 -16 9 -39 17 -13 34 -21 39 -18 6 3 7 1 3 -6 -4 -6 -2 -18 4 -26 7 -8 9
-15 4 -15 -15 0 -35 16 -33 26 4 21 -2 28 -11 14 -8 -13 -10 -13 -10 2 0 10
-11 25 -25 34 -27 18 -34 37 -10 28 10 -4 13 0 10 14 -3 20 16 25 32 8z m137
-6 c-6 -6 -15 -5 -24 1 -13 9 -12 10 3 5 9 -3 17 0 17 6 0 6 3 8 7 5 4 -4 2
-12 -3 -17z m56 -6 c0 -2 -9 0 -20 6 -11 6 -20 13 -20 16 0 2 9 0 20 -6 11 -6
20 -13 20 -16z m63 13 c4 3 7 2 7 -4 0 -6 -7 -16 -15 -23 -11 -9 -17 -9 -28 1
-17 16 1 43 19 28 6 -5 14 -6 17 -2z m-903 -16 c0 -5 6 -11 13 -14 6 -2 4 -3
-5 -2 -10 2 -18 1 -18 -2 0 -3 8 -12 18 -19 14 -12 15 -13 1 -8 -10 3 -20 1
-24 -5 -3 -6 -12 -11 -18 -11 -7 0 -4 5 6 11 14 8 16 14 6 25 -9 11 -9 14 0
14 7 0 9 5 6 10 -3 6 -1 10 4 10 6 0 11 -4 11 -9z m60 -1 c0 -5 -2 -10 -4 -10
-3 0 -8 5 -11 10 -3 6 -1 10 4 10 6 0 11 -4 11 -10z m47 -11 c-9 -14 -13 -15
-24 -4 -18 18 -17 21 11 21 20 0 22 -3 13 -17z m96 -2 c4 3 7 1 7 -5 0 -15
-17 -16 -25 -2 -4 6 -11 7 -17 4 -7 -4 -8 -2 -4 5 6 8 12 9 20 2 7 -6 16 -8
19 -4z m-360 -17 c10 -12 9 -12 -5 -1 -16 12 -22 9 -19 -11 0 -5 -4 -8 -10 -8
-6 0 -9 6 -6 14 3 8 1 17 -6 20 -7 2 -2 4 11 2 12 -1 28 -9 35 -16z m114 -5
c-4 -8 -12 -15 -19 -14 -10 0 -10 2 0 6 6 2 12 12 12 21 0 8 3 13 6 9 4 -3 4
-13 1 -22z m-172 -15 c2 -12 1 -20 -2 -16 -4 4 -8 16 -10 28 -4 28 6 18 12
-12z m-38 -2 c1 -10 0 -18 -2 -18 -2 0 -9 8 -14 18 -7 14 -6 19 3 19 6 0 13
-9 13 -19z m177 -19 c-3 -5 2 -9 10 -9 9 0 16 -4 16 -10 0 -13 -17 -13 -25 0
-4 6 -12 7 -18 4 -7 -4 -9 -4 -5 0 4 5 2 20 -3 34 -10 26 -10 26 10 8 11 -10
18 -23 15 -27z m153 35 c-3 -3 -12 -4 -19 -1 -8 3 -5 6 6 6 11 1 17 -2 13 -5z
m69 -22 c-17 -16 -18 -16 -5 5 7 12 15 20 18 17 3 -2 -3 -12 -13 -22z m615 14
c-9 -10 -8 -16 4 -26 8 -7 15 -17 15 -23 0 -5 -9 0 -20 13 -15 17 -17 26 -9
37 6 7 14 13 16 13 3 0 0 -6 -6 -14z m26 -8 c-3 -8 -6 -5 -6 6 -1 11 2 17 5
13 3 -3 4 -12 1 -19z m139 -16 c2 -25 0 -29 -11 -19 -7 6 -10 18 -8 25 3 7 2
12 -3 11 -17 -3 -25 1 -20 10 13 21 40 4 42 -27z m-1069 14 c-16 -13 -16 -14
5 -30 21 -15 21 -16 2 -7 -12 6 -25 7 -29 3 -5 -4 -5 -1 -1 6 5 8 1 12 -11 12
-12 1 -8 5 12 15 39 17 44 18 22 1z m989 -11 c18 -14 17 -15 -7 -6 -15 5 -30
7 -33 4 -3 -4 -6 -1 -6 5 0 17 22 15 46 -3z m-816 -5 c13 -8 13 -10 -2 -10 -9
0 -20 5 -23 10 -8 13 5 13 25 0z m860 -9 c0 -6 -4 -12 -8 -15 -5 -3 -9 1 -9 9
0 8 4 15 9 15 4 0 8 -4 8 -9z m-1120 -16 c0 -2 -9 -3 -19 -2 -11 0 -18 5 -15
9 4 6 34 0 34 -7z m1073 -27 c5 -3 -3 -6 -19 -6 -52 1 -75 -2 -70 -10 2 -4 -4
-8 -15 -8 -18 0 -18 2 -5 12 21 15 20 34 -1 35 -13 0 -14 2 -4 6 8 3 19 -1 25
-8 17 -22 60 -18 65 6 l5 20 4 -20 c2 -11 9 -23 15 -27z m-1029 1 c-2 -4 -13
-9 -24 -12 -11 -3 -18 -1 -14 4 3 5 12 9 19 9 9 0 12 6 9 18 -5 14 -4 14 4 2
6 -8 9 -17 6 -21z m186 17 c-7 -7 -13 -7 -20 0 -6 6 -3 10 10 10 13 0 16 -4
10 -10z m907 -2 c-3 -4 2 -18 13 -32 19 -24 18 -48 -1 -36 -5 3 -7 10 -3 15 3
6 -2 16 -12 23 -15 11 -13 36 3 36 4 0 3 -3 0 -6z m-947 -14 c0 -5 -7 -7 -15
-4 -9 4 -15 0 -15 -7 0 -12 -2 -12 -9 0 -6 9 -11 10 -15 2 -9 -14 2 -33 14
-26 5 3 7 -7 4 -22 -7 -35 -17 -46 -12 -13 2 18 -1 24 -12 22 -8 -2 -12 -1 -8
3 4 4 3 17 -1 29 -8 19 -5 21 30 23 22 1 39 -2 39 -7z m745 -10 c3 -5 -5 -6
-17 -2 -16 4 -19 2 -13 -9 5 -8 4 -10 0 -6 -18 15 -13 35 6 30 11 -3 21 -9 24
-13z m157 -12 c-8 -8 -9 -4 -5 13 4 13 8 18 11 10 2 -7 -1 -18 -6 -23z m-1018
4 c3 -5 -1 -9 -9 -9 -8 0 -12 4 -9 9 3 4 7 8 9 8 2 0 6 -4 9 -8z m983 -19 c-4
-3 -1 -13 6 -22 10 -14 10 -14 -4 -4 -10 9 -19 9 -26 2 -6 -6 -10 -5 -10 5 0
8 4 13 8 10 4 -2 10 0 14 6 3 5 9 10 12 10 4 0 3 -3 0 -7z m-1090 -19 c-3 -3
-12 -4 -19 -1 -8 3 -5 6 6 6 11 1 17 -2 13 -5z m80 -7 c4 -4 -3 -10 -15 -14
-12 -3 -20 -9 -17 -13 3 -5 1 -11 -4 -14 -10 -7 -9 13 2 31 4 6 1 14 -5 17 -7
2 -3 4 9 2 12 -1 26 -5 30 -9z m143 -7 c0 -5 -7 -10 -16 -10 -8 0 -12 5 -9 10
3 6 10 10 16 10 5 0 9 -4 9 -10z m789 1 c9 -6 10 -11 2 -15 -6 -4 -11 -2 -11
4 0 6 -4 8 -10 5 -5 -3 -10 -1 -10 4 0 13 10 14 29 2z m-39 -16 c0 -8 -4 -15
-10 -15 -5 0 -10 7 -10 15 0 8 5 15 10 15 6 0 10 -7 10 -15z m157 0 c0 -8 -4
-12 -9 -9 -4 3 -8 9 -8 15 0 5 4 9 8 9 5 0 9 -7 9 -15z m30 -7 c-3 -8 -6 -5
-6 6 -1 11 2 17 5 13 3 -3 4 -12 1 -19z m-1152 3 c-3 -5 0 -15 7 -23 15 -15
20 -60 7 -52 -5 3 -9 0 -9 -7 0 -8 -4 -8 -15 1 -8 7 -13 16 -10 20 3 5 -1 11
-7 14 -7 3 -3 3 10 0 23 -6 27 2 13 26 -9 13 -6 30 5 30 3 0 3 -4 -1 -9z
m1060 -12 c-6 -16 -4 -20 6 -13 12 6 12 5 0 -9 -17 -22 -16 -22 -19 13 -1 17
3 30 9 30 6 0 8 -9 4 -21z m-994 -2 c-6 -8 -7 -18 -3 -22 4 -5 2 -5 -5 -1 -14
8 -6 36 9 36 7 0 6 -5 -1 -13z m75 2 c3 -6 1 -16 -5 -22 -9 -9 -10 -7 -5 7 6
16 4 18 -10 13 -10 -4 -15 -3 -11 3 8 13 22 13 31 -1z m889 -10 c-3 -12 -7
-24 -10 -27 -3 -3 -3 5 -1 19 6 30 5 29 10 29 3 0 3 -10 1 -21z m155 -9 c-6
-11 -16 -17 -25 -14 -9 4 -22 1 -30 -6 -18 -15 -45 -6 -45 15 0 9 5 13 10 10
6 -4 8 -10 6 -14 -3 -4 2 -8 10 -8 8 0 13 6 10 14 -6 16 -5 16 29 3 22 -8 26
-8 22 4 -6 16 2 28 14 20 5 -3 4 -14 -1 -24z m-1110 -30 c0 -5 -2 -10 -4 -10
-3 0 -8 5 -11 10 -3 6 -1 10 4 10 6 0 11 -4 11 -10z m1000 -35 c7 -9 8 -15 2
-15 -5 0 -12 7 -16 15 -3 8 -4 15 -2 15 2 0 9 -7 16 -15z m-1017 -8 c4 3 7 1
7 -5 0 -17 -16 -15 -31 6 -12 15 -12 16 2 5 9 -7 19 -10 22 -6z m1076 6 c14
11 14 10 2 -6 -10 -13 -17 -15 -27 -6 -8 6 -14 14 -14 17 0 3 5 1 12 -6 9 -9
15 -9 27 1z m65 -34 c-3 -5 -10 -7 -15 -3 -5 3 -7 10 -3 15 3 5 10 7 15 3 5
-3 7 -10 3 -15z m-1178 -30 c-13 -10 -30 -19 -38 -20 -7 0 0 -6 16 -13 18 -8
24 -16 17 -20 -12 -8 -44 19 -47 39 -1 7 5 11 15 8 9 -2 22 5 30 16 8 11 18
18 23 15 5 -3 -2 -14 -16 -25z m47 16 c-3 -9 -8 -14 -10 -11 -3 3 -2 9 2 15 9
16 15 13 8 -4z m1029 -7 c-7 -7 -12 -8 -12 -2 0 14 12 26 19 19 2 -3 -1 -11
-7 -17z m53 -8 c-3 -5 -12 -10 -18 -10 -7 0 -6 4 3 10 19 12 23 12 15 0z m55
-5 c9 -10 9 -15 1 -15 -6 0 -11 4 -11 9 0 5 -8 12 -17 14 -15 4 -15 5 -2 6 9
0 22 -6 29 -14z m-86 -10 c3 -9 0 -15 -9 -15 -9 0 -12 6 -9 15 4 8 7 15 9 15
2 0 5 -7 9 -15z m-1058 -4 c-3 -4 3 -16 14 -26 24 -22 25 -31 5 -39 -8 -3 -14
-1 -12 3 1 5 -2 9 -8 9 -5 0 -9 -4 -8 -9 2 -5 0 -8 -5 -6 -4 1 -9 -2 -10 -8
-2 -5 -7 -14 -12 -20 -4 -5 -6 -18 -4 -28 1 -11 -1 -16 -4 -12 -4 4 -7 10 -7
13 0 4 -4 13 -8 20 -5 8 -3 12 8 12 9 0 14 4 11 8 -3 5 4 23 14 40 18 30 18
32 2 33 -14 0 -14 2 3 9 26 11 27 11 21 1z m1119 -25 c12 -12 12 -16 0 -26 -8
-7 -20 -10 -27 -7 -8 4 -7 6 4 6 11 1 15 6 12 16 -4 8 -11 12 -17 8 -6 -3 -7
-1 -3 5 9 15 14 15 31 -2z m-65 -61 c14 -17 8 -31 -9 -20 -6 3 -9 11 -6 16 9
13 -9 11 -25 -3 -12 -11 -12 -10 -1 5 16 21 25 21 41 2z m-996 -26 c-3 -6 4
-13 16 -16 12 -3 19 -11 16 -19 -7 -19 18 -36 33 -21 10 9 11 8 6 -5 -4 -10
-9 -18 -12 -18 -13 0 -63 43 -58 50 3 4 -1 13 -9 19 -10 9 -17 6 -30 -13 -14
-23 -14 -25 2 -29 12 -3 11 -5 -5 -6 -14 -1 -23 5 -23 14 0 8 5 15 10 15 6 0
10 5 10 11 0 5 -5 7 -12 3 -7 -4 -8 -3 -4 4 4 7 2 12 -3 12 -6 0 -11 5 -11 12
0 6 8 4 19 -6 20 -18 39 -7 25 15 -4 8 0 7 15 -1 12 -6 19 -16 15 -21z m1074
-3 c-7 -8 -15 -12 -17 -11 -5 6 10 25 20 25 5 0 4 -6 -3 -14z m-99 -46 c-1
-17 -3 -19 -6 -8 -4 15 -8 16 -26 7 -21 -12 -21 -11 -4 8 9 11 17 26 17 34 0
12 2 11 10 -1 5 -8 9 -26 9 -40z m61 36 c0 -2 -11 -6 -25 -8 -14 -3 -25 -1
-25 3 0 5 11 9 25 9 14 0 25 -2 25 -4z m-1112 -51 c-3 -3 -9 2 -12 12 -6 14
-5 15 5 6 7 -7 10 -15 7 -18z m992 -6 c0 -5 -11 -9 -25 -9 -17 0 -25 5 -24 18
0 10 3 12 6 5 2 -7 12 -13 20 -13 13 0 14 2 2 18 -13 15 -12 16 4 3 9 -7 17
-17 17 -22z m-1029 -6 c12 -14 12 -15 0 -9 -10 7 -12 3 -6 -14 5 -15 4 -20 -4
-16 -6 4 -10 18 -9 31 3 30 2 29 19 8z m966 11 c-10 -11 13 -45 25 -38 6 4 8
3 5 -2 -10 -18 -64 -15 -78 3 -11 15 -11 16 1 6 17 -15 54 -17 45 -3 -4 6 -11
7 -17 4 -6 -4 -6 2 1 15 7 11 15 21 18 21 3 0 3 -3 0 -6z m213 2 c0 -2 -7 -7
-16 -10 -8 -3 -12 -2 -9 4 6 10 25 14 25 6z m26 -19 c0 -7 -12 -22 -27 -35
-20 -16 -27 -19 -23 -8 3 9 1 16 -5 16 -6 0 -11 5 -11 10 0 7 6 7 20 0 15 -8
21 -6 29 9 6 10 8 21 6 25 -3 3 -2 4 2 1 4 -3 8 -11 9 -18z m-911 2 c11 -16 1
-19 -13 -3 -7 8 -8 14 -3 14 5 0 13 -5 16 -11z m65 4 c0 -5 -11 -8 -24 -8 -13
0 -22 3 -19 8 2 4 13 7 24 7 10 0 19 -3 19 -7z m154 -9 c3 -8 2 -12 -4 -9 -6
3 -10 10 -10 16 0 14 7 11 14 -7z m56 -5 c0 -5 -8 -9 -17 -8 -11 0 -13 3 -5 6
6 2 9 10 6 15 -4 7 -2 8 4 4 7 -4 12 -11 12 -17z m25 12 c-3 -5 -1 -12 5 -16
15 -9 12 -25 -5 -25 -10 0 -14 7 -11 23 6 29 5 27 12 27 3 0 3 -4 -1 -9z m199
-6 c-4 -8 -7 -15 -9 -15 -2 0 -5 7 -9 15 -3 9 0 15 9 15 9 0 12 -6 9 -15z
m273 8 c-4 -3 0 -14 8 -23 12 -13 12 -20 2 -33 -10 -14 -14 -14 -25 -1 -11 11
-10 14 3 14 18 0 20 17 3 22 -11 4 -3 28 9 28 4 0 3 -3 0 -7z m68 -67 c15 -11
15 -13 1 -25 -11 -9 -16 -10 -16 -2 0 6 6 11 13 12 6 0 1 5 -13 10 -23 8 -25
14 -21 47 l4 37 8 -33 c3 -18 14 -39 24 -46z m-891 56 c3 -4 -8 -7 -25 -6 -22
2 -29 -2 -29 -16 0 -10 -6 -20 -14 -23 -11 -5 -11 -1 1 24 14 28 54 41 67 21z
m180 1 c-12 -2 -26 -15 -32 -29 -7 -13 -17 -24 -24 -24 -9 0 -10 3 -2 8 6 4
16 17 23 30 7 13 20 21 34 21 21 -2 21 -2 1 -6z m-267 -17 c0 -8 -5 -14 -11
-13 -5 1 -10 -7 -10 -18 0 -13 6 -20 16 -19 9 1 19 -5 22 -12 3 -8 2 -13 -2
-11 -7 2 -12 -6 -12 -24 0 -5 5 -7 12 -3 7 4 8 3 4 -4 -10 -16 -34 -4 -32 16
4 22 -15 41 -34 35 -9 -3 -11 -2 -4 4 6 4 14 16 17 27 6 15 3 17 -13 13 -12
-3 -18 -1 -14 5 3 5 15 8 25 5 10 -3 22 -1 25 4 8 13 11 11 11 -5z m308 -7
c-4 -6 0 -9 10 -7 10 2 20 -3 22 -9 3 -10 -2 -11 -18 -5 -25 10 -38 32 -19 32
6 0 8 -5 5 -11z m187 -1 c-17 -17 -15 -28 6 -22 14 5 14 4 2 -4 -8 -6 -18 -8
-22 -6 -21 13 -5 -16 17 -30 30 -20 41 -21 25 -1 -13 15 -5 39 11 30 10 -6 7
-40 -4 -51 -10 -11 -9 -26 2 -20 5 3 12 -1 15 -9 4 -13 2 -13 -14 -5 -10 5
-22 19 -25 30 -5 16 -10 18 -24 11 -12 -7 -18 -6 -19 2 0 7 -3 22 -6 35 -3 12
-1 20 4 17 5 -3 11 4 15 15 3 11 11 20 18 20 8 0 8 -3 -1 -12z m118 2 c0 -5
-5 -10 -11 -10 -5 0 -7 5 -4 10 3 6 8 10 11 10 2 0 4 -4 4 -10z m140 -5 c6 -7
2 -11 -11 -12 -10 -1 -19 3 -19 8 0 6 -4 8 -9 4 -5 -3 -12 -1 -16 5 -8 13 44
9 55 -5z m-893 -17 c-3 -8 -6 -5 -6 6 -1 11 2 17 5 13 3 -3 4 -12 1 -19z m59
2 c0 -23 -11 -27 -19 -6 -3 8 -1 17 6 20 7 2 12 5 12 5 1 1 1 -8 1 -19z m449
11 c3 -5 2 -12 -3 -15 -5 -3 -9 1 -9 9 0 17 3 19 12 6z m182 3 c-3 -3 -12 -4
-19 -1 -8 3 -5 6 6 6 11 1 17 -2 13 -5z m323 -4 c0 -5 -2 -10 -4 -10 -3 0 -8
5 -11 10 -3 6 -1 10 4 10 6 0 11 -4 11 -10z m-307 -15 c-3 -9 -8 -14 -10 -11
-3 3 -2 9 2 15 9 16 15 13 8 -4z m-434 -16 c9 -16 8 -16 -17 -3 -24 12 -27 12
-34 -5 -3 -11 -11 -22 -17 -25 -5 -4 -3 6 4 22 16 31 47 37 64 11z m280 0 c1
8 4 12 7 8 10 -10 -6 -26 -21 -21 -8 3 -11 12 -8 22 6 13 8 13 14 -4 5 -11 8
-13 8 -5z m198 15 c-3 -3 -12 -4 -19 -1 -8 3 -5 6 6 6 11 1 17 -2 13 -5z m98
-11 c-6 -17 10 -16 46 3 17 8 33 13 37 10 3 -3 0 -6 -6 -6 -7 0 -12 -7 -12
-15 0 -22 -22 -28 -56 -14 -35 14 -76 20 -70 10 3 -4 1 -13 -4 -21 -7 -12 -12
-12 -22 -2 -9 9 -8 12 8 13 11 0 14 3 6 6 -10 4 -9 8 4 17 22 17 76 15 69 -1z
m-823 -25 c-3 -14 -1 -19 6 -14 16 10 23 -9 13 -36 l-10 -23 0 23 c-1 12 -8
25 -16 28 -11 4 -12 11 -5 24 5 9 6 21 2 25 -4 5 -2 5 5 2 6 -4 9 -17 5 -29z
m153 22 c3 -5 1 -10 -4 -10 -6 0 -11 5 -11 10 0 6 2 10 4 10 3 0 8 -4 11 -10z
m216 -4 c0 -3 4 -18 8 -34 7 -24 5 -28 -11 -29 -16 -2 -17 1 -8 12 8 10 8 19
1 33 -6 11 -7 22 -4 26 7 6 15 2 14 -8z m587 -12 c0 -18 -3 -22 -9 -13 -7 11
-9 9 -9 -5 0 -11 -2 -17 -5 -14 -8 8 5 58 15 58 4 0 8 -12 8 -26z m-628 10 c0
-8 -19 -13 -24 -6 -3 5 1 9 9 9 8 0 15 -2 15 -3z m91 -11 c13 -16 12 -17 -3
-4 -13 9 -18 10 -18 2 0 -7 -5 -9 -10 -6 -11 7 -4 25 9 25 5 0 15 -8 22 -17z
m149 -4 c0 -5 -4 -9 -10 -9 -5 0 -10 7 -10 16 0 8 5 12 10 9 6 -3 10 -10 10
-16z m495 11 c3 -6 -1 -7 -9 -4 -18 7 -21 14 -7 14 6 0 13 -4 16 -10z m-1105
-15 c0 -1 -9 -5 -19 -8 -13 -3 -18 -1 -14 9 4 10 33 10 33 -1z m96 3 c3 -4 -1
-5 -10 -4 -8 1 -18 5 -22 8 -3 4 1 5 10 4 8 -1 18 -5 22 -8z m419 2 c3 -5 2
-10 -4 -10 -5 0 -13 5 -16 10 -3 6 -2 10 4 10 5 0 13 -4 16 -10z m245 6 c0
-11 -19 -15 -25 -6 -3 5 1 10 9 10 9 0 16 -2 16 -4z m279 -9 c8 -10 7 -14 -4
-14 -8 0 -16 6 -19 14 -7 17 8 17 23 0z m129 -34 c0 -12 -5 -23 -11 -23 -6 0
-7 3 -4 6 3 4 2 14 -3 24 -6 12 -5 17 4 17 8 0 14 -11 14 -24z m-1168 2 c0 -8
-4 -15 -9 -15 -6 0 -8 -8 -6 -18 2 -11 -3 -19 -11 -19 -10 0 -11 4 -3 14 6 7
8 13 4 13 -4 0 -2 6 4 13 6 8 8 17 4 20 -3 4 -1 7 5 7 7 0 12 -7 12 -15z m299
-3 c0 -9 -5 -26 -10 -37 -8 -18 -9 -17 -5 4 3 15 -1 29 -10 36 -13 9 -12 11 5
12 14 1 21 -4 20 -15z m211 7 c0 -5 -6 -7 -12 -3 -7 4 -10 4 -6 -1 4 -4 3 -16
-3 -26 -7 -13 -6 -19 1 -19 6 0 8 -5 5 -11 -11 -17 -20 0 -20 37 0 26 4 34 17
34 10 0 18 -5 18 -11z m94 0 c-2 -4 2 -9 8 -11 9 -3 6 -8 -7 -15 -17 -10 -20
-8 -20 11 0 13 5 23 12 23 7 0 10 -4 7 -8z m146 1 c-8 -5 -19 -10 -25 -10 -5
0 -3 5 5 10 8 5 20 10 25 10 6 0 3 -5 -5 -10z m160 6 c0 -3 -4 -8 -10 -11 -5
-3 -10 -1 -10 4 0 6 5 11 10 11 6 0 10 -2 10 -4z m-790 -15 c0 -6 -4 -12 -8
-15 -5 -3 -9 1 -9 9 0 8 4 15 9 15 4 0 8 -4 8 -9z m697 -13 c0 -13 -1 -17 -4
-10 -3 6 -9 10 -14 6 -5 -3 -9 -1 -9 5 0 5 6 12 13 14 6 3 12 6 12 6 1 1 1 -9
2 -21z m233 12 c0 -5 -4 -10 -9 -10 -6 0 -13 5 -16 10 -3 6 1 10 9 10 9 0 16
-4 16 -10z m53 -12 c12 -13 27 -21 32 -20 5 2 7 0 3 -4 -4 -4 -2 -14 4 -23 10
-13 10 -14 -2 -3 -20 17 -33 15 -26 -4 5 -14 4 -15 -8 -5 -17 14 -31 -2 -20
-21 6 -9 3 -9 -9 0 -9 8 -21 11 -26 8 -5 -4 -13 -1 -17 5 -4 8 -3 9 4 5 7 -4
12 -1 12 8 0 8 5 18 12 22 8 5 9 2 5 -9 -8 -21 2 -21 27 -2 17 13 17 15 -9 39
-16 14 -23 26 -16 26 6 0 21 -10 34 -22z m97 12 c0 -5 -4 -10 -10 -10 -5 0
-10 5 -10 10 0 6 5 10 10 10 6 0 10 -4 10 -10z m-1010 -18 c-18 -11 -36 -25
-38 -32 -3 -8 0 -10 8 -5 9 6 11 4 5 -4 -10 -17 -27 1 -20 20 6 16 41 36 65
38 8 0 -1 -7 -20 -17z m-153 2 c-3 -4 -2 -16 4 -28 10 -20 9 -20 -5 -2 -14 17
-13 36 1 36 4 0 3 -3 0 -6z m53 -24 c0 -31 -15 -30 -17 1 -1 17 2 27 7 24 6
-4 10 -15 10 -25z m154 15 c-4 -8 -8 -15 -10 -15 -2 0 -4 7 -4 15 0 8 4 15 10
15 5 0 7 -7 4 -15z m116 3 c0 -9 4 -8 10 2 13 21 12 6 -2 -25 -6 -14 -16 -25
-21 -25 -5 0 -4 7 3 15 7 9 10 19 6 22 -4 4 -11 1 -16 -7 -11 -17 -13 -9 -4
14 7 19 24 21 24 4z m100 -9 c0 -6 -4 -7 -10 -4 -5 3 -10 11 -10 16 0 6 5 7
10 4 6 -3 10 -11 10 -16z m-440 -10 c0 -5 -4 -9 -10 -9 -5 0 -10 7 -10 16 0 8
5 12 10 9 6 -3 10 -10 10 -16z m203 0 c18 -20 18 -21 -2 -14 -14 4 -23 1 -27
-9 -3 -9 -11 -16 -16 -16 -6 0 -5 6 2 15 7 8 9 15 5 15 -4 0 -2 7 5 15 15 18
12 19 33 -6z m198 -2 c-10 -9 -11 -8 -5 6 3 10 9 15 12 12 3 -3 0 -11 -7 -18z
m139 8 c10 -13 9 -15 -11 -14 -13 0 -18 3 -11 6 6 2 10 9 6 14 -9 15 2 10 16
-6z m111 -1 c7 -8 21 -13 31 -11 10 3 15 1 12 -4 -3 -6 5 -8 20 -5 16 3 23 0
20 -7 -2 -7 8 -20 23 -30 27 -18 27 -18 3 -11 -22 6 -23 5 -12 -9 8 -9 19 -14
25 -11 7 2 18 -6 26 -18 13 -21 13 -22 -2 -9 -10 7 -17 10 -17 6 0 -4 -7 -2
-15 5 -10 8 -19 9 -27 3 -11 -8 -22 -9 -44 -4 -3 0 -2 6 1 11 5 8 12 7 23 -2
13 -11 15 -11 10 3 -4 9 -3 20 2 25 5 5 2 18 -6 28 -9 13 -14 15 -14 6 0 -11
-3 -11 -12 -2 -7 7 -18 12 -25 12 -8 0 -23 9 -35 20 -12 11 -17 20 -11 20 6 0
16 -7 24 -16z m254 6 c-3 -5 -16 -10 -28 -9 -20 1 -20 2 3 9 14 4 26 8 28 9 2
1 0 -3 -3 -9z m-797 -25 c-3 -3 -9 2 -12 12 -6 14 -5 15 5 6 7 -7 10 -15 7
-18z m1062 4 c0 -14 -17 -10 -23 5 -4 10 -1 13 9 9 7 -3 14 -9 14 -14z m-560
-5 c0 -8 -5 -12 -10 -9 -6 4 -8 11 -5 16 9 14 15 11 15 -7z m200 -5 c13 -23 8
-35 -9 -24 -6 3 -8 11 -5 17 4 6 0 14 -7 19 -10 6 -10 9 -2 9 7 0 17 -9 23
-21z m152 6 c2 3 5 -2 5 -10 0 -8 -4 -15 -9 -15 -4 0 -8 6 -8 13 0 9 -3 8 -9
-2 -10 -15 -51 -6 -51 12 0 8 3 8 12 -1 13 -13 29 -16 27 -4 -3 19 2 24 14 13
8 -6 16 -9 19 -6z m42 0 c-4 -8 -10 -15 -15 -15 -4 0 -6 7 -3 15 4 8 10 15 15
15 4 0 6 -7 3 -15z m-754 -5 c0 -5 -2 -10 -4 -10 -3 0 -8 5 -11 10 -3 6 -1 10
4 10 6 0 11 -4 11 -10z m325 1 c3 -5 1 -12 -5 -16 -5 -3 -10 1 -10 9 0 18 6
21 15 7z m-560 -13 c5 4 5 2 1 -5 -4 -7 -13 -10 -21 -6 -8 3 -15 -1 -15 -8 0
-7 -2 -10 -5 -7 -3 3 -3 13 1 22 4 12 10 14 19 6 6 -5 16 -6 20 -2z m313 -12
c-2 -1 -10 -7 -20 -14 -12 -10 -18 -10 -24 -1 -4 8 -3 9 4 5 7 -4 12 -1 12 8
0 10 6 13 15 9 9 -3 15 -6 13 -7z m124 3 c2 -2 1 -3 -1 -2 -2 2 -9 -2 -16 -7
-8 -7 -12 -5 -12 4 0 12 22 16 29 5z m92 -1 c-3 -4 -11 -5 -19 -1 -9 3 -23 -1
-33 -8 -15 -13 -16 -12 -3 3 12 17 65 22 55 6z m126 -3 c-7 -9 -15 -13 -19
-10 -3 3 1 10 9 15 21 14 24 12 10 -5z m188 1 c-7 -8 -17 -12 -22 -9 -4 3 -2
9 5 14 22 13 31 11 17 -5z m284 -8 c-7 -7 -12 -8 -12 -2 0 14 12 26 19 19 2
-3 -1 -11 -7 -17z m-1075 -20 c-3 -7 -5 -2 -5 12 0 14 2 19 5 13 2 -7 2 -19 0
-25z m73 20 c0 -11 -12 -10 -30 2 -12 7 -10 9 8 7 12 0 22 -5 22 -9z m115 -7
c-3 -6 -11 -11 -16 -11 -5 0 -4 6 3 14 14 16 24 13 13 -3z m355 9 c0 -5 -4
-10 -10 -10 -5 0 -10 5 -10 10 0 6 5 10 10 10 6 0 10 -4 10 -10z m295 1 c3 -6
-3 -9 -14 -8 -11 0 -17 5 -15 9 7 11 22 10 29 -1z m104 -12 c3 -11 1 -12 -10
-2 -9 7 -20 8 -28 4 -9 -6 -10 -11 -2 -15 6 -4 11 -12 11 -18 0 -7 -4 -7 -13
1 -8 6 -17 9 -20 6 -4 -3 -5 -2 -2 2 3 3 -3 12 -13 20 -16 13 -15 14 4 10 12
-3 28 -1 35 4 18 11 31 7 38 -12z m-609 -12 c0 -8 -3 -8 -9 2 -6 9 -11 10 -15
2 -4 -6 -15 -11 -24 -11 -12 0 -10 4 8 14 27 14 40 12 40 -7z m-357 -12 c4 3
5 2 2 -2 -3 -3 0 -12 6 -20 19 -23 -1 -14 -26 12 -29 28 -34 46 -7 22 10 -10
22 -15 25 -12z m173 -1 c13 4 24 3 24 -2 0 -5 -6 -9 -12 -9 -7 0 -24 -3 -38
-6 -14 -4 -19 -4 -12 -1 10 5 9 10 -5 21 -10 8 -12 12 -5 8 6 -3 13 0 13 7 1
7 3 5 6 -5 4 -14 11 -17 29 -13z m608 11 c-4 -8 -10 -12 -15 -9 -11 6 -2 24
11 24 5 0 7 -7 4 -15z m263 -7 c-3 -8 -6 -5 -6 6 -1 11 2 17 5 13 3 -3 4 -12
1 -19z m-938 -2 c7 -8 8 -17 3 -20 -6 -3 -12 3 -15 14 -6 24 -4 25 12 6z m204
-16 c7 0 7 -4 -2 -12 -10 -11 -15 -9 -27 6 -19 26 -18 41 2 22 8 -9 21 -16 27
-16z m94 15 c-4 -8 -2 -17 3 -20 11 -7 -10 -45 -24 -45 -4 0 -3 6 3 13 6 8 7
17 3 21 -10 11 -9 30 3 38 15 11 18 10 12 -7z m138 5 c-3 -5 -1 -10 6 -10 7 0
10 -2 7 -5 -8 -9 -38 6 -32 16 3 5 10 9 15 9 6 0 7 -4 4 -10z m292 -16 c2 -16
1 -16 -3 -1 -3 9 -9 15 -14 12 -5 -3 -11 -1 -14 4 -4 5 2 8 11 7 10 -2 19 -11
20 -22z m182 5 c-11 -7 -11 -9 1 -9 12 0 12 -2 2 -8 -7 -5 -10 -17 -7 -28 4
-11 0 -9 -8 6 -16 26 -18 47 -4 43 4 -2 7 2 7 8 0 5 5 7 11 3 8 -4 7 -9 -2
-15z m58 14 c-4 -3 -1 -13 5 -22 7 -9 9 -13 4 -9 -9 7 -36 -13 -30 -23 2 -3
-3 -6 -11 -6 -13 0 -13 3 0 17 8 9 15 24 15 33 0 9 5 17 12 17 6 0 8 -3 5 -7z
m-592 -25 c6 -6 3 -7 -9 -2 -11 4 -21 2 -27 -7 -7 -11 -9 -11 -9 3 0 9 -6 19
-12 22 -7 3 1 3 17 -1 17 -3 35 -10 40 -15z m400 12 c3 -5 2 -10 -4 -10 -5 0
-13 5 -16 10 -3 6 -2 10 4 10 5 0 13 -4 16 -10z m-844 -31 c-5 -13 -10 -19
-10 -12 -1 15 10 45 15 40 3 -2 0 -15 -5 -28z m49 10 c0 -5 -4 -9 -10 -9 -5 0
-10 7 -10 16 0 8 5 12 10 9 6 -3 10 -10 10 -16z m144 -5 c3 -8 2 -12 -4 -9 -6
3 -10 10 -10 16 0 14 7 11 14 -7z m40 0 c3 -8 2 -12 -4 -9 -6 3 -10 10 -10 16
0 14 7 11 14 -7z m249 1 c-3 -9 -8 -14 -10 -11 -3 3 -2 9 2 15 9 16 15 13 8
-4z m-612 -8 c-6 -8 -8 -17 -4 -20 3 -4 1 -7 -5 -7 -15 0 -15 13 0 28 16 16
23 15 9 -1z m39 6 c-1 -18 -18 -35 -24 -24 -4 6 -2 11 4 11 6 0 8 5 5 10 -3 6
-1 10 4 10 6 0 11 -3 11 -7z m610 -27 c0 -5 -7 -3 -15 4 -8 7 -12 17 -9 22 7
10 24 -9 24 -26z m393 19 c-3 -9 -8 -14 -10 -11 -3 3 -2 9 2 15 9 16 15 13 8
-4z m-123 0 c0 -2 -10 -9 -22 -15 -22 -11 -22 -10 -4 4 21 17 26 19 26 11z
m275 -15 c-3 -5 -13 -6 -21 -3 -12 4 -13 8 -3 14 15 9 32 2 24 -11z"/>
<path d="M1000 902 c0 -5 7 -9 15 -9 8 0 12 4 9 9 -3 4 -9 8 -15 8 -5 0 -9 -4
-9 -8z"/>
<path d="M1185 910 c3 -5 8 -10 11 -10 2 0 4 5 4 10 0 6 -5 10 -11 10 -5 0 -7
-4 -4 -10z"/>
<path d="M50 640 c-9 -6 -10 -10 -3 -10 6 0 15 5 18 10 8 12 4 12 -15 0z"/>
<path d="M110 496 c0 -2 8 -10 18 -17 15 -13 16 -12 3 4 -13 16 -21 21 -21 13z"/>
<path d="M965 250 c-3 -5 -1 -10 4 -10 6 0 11 5 11 10 0 6 -2 10 -4 10 -3 0
-8 -4 -11 -10z"/>
<path d="M265 1270 c3 -5 11 -10 16 -10 6 0 7 5 4 10 -3 6 -11 10 -16 10 -6 0
-7 -4 -4 -10z"/>
<path d="M1271 1124 c0 -11 3 -14 6 -6 3 7 2 16 -1 19 -3 4 -6 -2 -5 -13z"/>
<path d="M0 953 c0 -8 5 -13 12 -11 18 6 21 25 3 25 -8 0 -15 -7 -15 -14z"/>
</g>
</svg>
