<svg width="448" height="912" viewBox="0 0 448 912" fill="none" xmlns="http://www.w3.org/2000/svg">
<g clip-path="url(#clip0_1_2)">
<path d="M0 143.614C0 142.528 0.880408 141.647 1.96637 141.647H11.2101C12.2962 141.647 13.1765 142.528 13.1765 143.614V175.916C13.1765 177.002 12.2962 177.882 11.2101 177.882H1.96637C0.880408 177.882 0 177.002 0 175.916V143.614Z" fill="#EBECF0"/>
<path d="M0 209.496C0 208.41 0.880408 207.529 1.96637 207.529H11.2101C12.2962 207.529 13.1765 208.41 13.1765 209.496V274.739C13.1765 275.825 12.2962 276.706 11.2101 276.706H1.96637C0.880408 276.706 0 275.825 0 274.739V209.496Z" fill="#EBECF0"/>
<path d="M0 298.437C0 297.351 0.880408 296.471 1.96637 296.471H11.2101C12.2962 296.471 13.1765 297.351 13.1765 298.437V363.68C13.1765 364.766 12.2962 365.647 11.2101 365.647H1.96637C0.880408 365.647 0 364.766 0 363.68V298.437Z" fill="#EBECF0"/>
<g filter="url(#filter0_i_1_2)">
<path fill-rule="evenodd" clip-rule="evenodd" d="M7 38.394C7 18.8464 22.8465 3 42.3941 3H406.43C425.977 3 441.824 18.8464 441.824 38.394V873.489C441.824 893.036 425.977 908.883 406.43 908.883H42.3941C22.8466 908.883 7 893.036 7 873.489V38.394ZM23.4708 46.9991C23.4708 31.7955 35.7959 19.4704 50.9995 19.4704C50.9995 19.4704 110.215 19.4705 112.412 19.4704C114.608 19.4704 115.708 20.5685 115.707 22.7646C115.706 24.9606 115.707 33.1959 115.707 33.1959C115.707 52.4118 128.418 52.4118 136.019 52.4118H313.353C320.956 52.4118 333.119 52.4118 333.119 33.1959C333.119 33.1959 333.117 24.9606 333.119 22.7646C333.12 20.5685 334.215 19.4704 336.412 19.4704C338.608 19.4705 397.825 19.4704 397.825 19.4704C413.028 19.4704 425.354 31.7955 425.354 46.9991V864.884C425.354 880.087 413.028 892.413 397.825 892.413H50.9995C35.7959 892.413 23.4708 880.087 23.4708 864.884V46.9991Z" fill="#ECEDEF"/>
</g>
<path d="M434.824 235.849C434.824 234.763 435.704 233.882 436.79 233.882H446.033C447.119 233.882 448 234.763 448 235.849V337.328C448 338.413 447.119 339.294 446.033 339.294H436.79C435.704 339.294 434.824 338.413 434.824 337.328V235.849Z" fill="#EBECF0"/>
<g filter="url(#filter1_i_1_2)">
<path d="M183 34.2941C183 32.4748 184.819 31 187.063 31H260.192C262.436 31 264.255 32.4748 264.255 34.2941C264.255 36.1133 262.436 37.5882 260.192 37.5882H187.063C184.819 37.5882 183 36.1133 183 34.2941Z" fill="#BEBFC3"/>
</g>
</g>
<defs>
<filter id="filter0_i_1_2" x="5" y="1" width="436.824" height="907.883" filterUnits="userSpaceOnUse" color-interpolation-filters="sRGB">
<feFlood flood-opacity="0" result="BackgroundImageFix"/>
<feBlend mode="normal" in="SourceGraphic" in2="BackgroundImageFix" result="shape"/>
<feColorMatrix in="SourceAlpha" type="matrix" values="0 0 0 0 0 0 0 0 0 0 0 0 0 0 0 0 0 0 127 0" result="hardAlpha"/>
<feOffset dx="-2" dy="-2"/>
<feGaussianBlur stdDeviation="2"/>
<feComposite in2="hardAlpha" operator="arithmetic" k2="-1" k3="1"/>
<feColorMatrix type="matrix" values="0 0 0 0 0 0 0 0 0 0 0 0 0 0 0 0 0 0 0.25 0"/>
<feBlend mode="normal" in2="shape" result="effect1_innerShadow_1_2"/>
</filter>
<filter id="filter1_i_1_2" x="183" y="31" width="82.2549" height="7.58826" filterUnits="userSpaceOnUse" color-interpolation-filters="sRGB">
<feFlood flood-opacity="0" result="BackgroundImageFix"/>
<feBlend mode="normal" in="SourceGraphic" in2="BackgroundImageFix" result="shape"/>
<feColorMatrix in="SourceAlpha" type="matrix" values="0 0 0 0 0 0 0 0 0 0 0 0 0 0 0 0 0 0 127 0" result="hardAlpha"/>
<feOffset dx="1" dy="1"/>
<feGaussianBlur stdDeviation="1"/>
<feComposite in2="hardAlpha" operator="arithmetic" k2="-1" k3="1"/>
<feColorMatrix type="matrix" values="0 0 0 0 0 0 0 0 0 0 0 0 0 0 0 0 0 0 0.25 0"/>
<feBlend mode="normal" in2="shape" result="effect1_innerShadow_1_2"/>
</filter>
<clipPath id="clip0_1_2">
<rect width="448" height="912" fill="white"/>
</clipPath>
</defs>
</svg>
